<mxfile host="app.diagrams.net" modified="2023-03-13T02:53:07.511Z" agent="5.0 (Windows NT 10.0; Win64; x64) AppleWebKit/537.36 (KHTML, like Gecko) Chrome/110.0.0.0 Safari/537.36" etag="JvopxywdOZZytzfDoyEt" version="21.0.6" type="github">
  <diagram name="Halaman-1" id="iRGRqF0RRlQ8YncuhCtj">
    <mxGraphModel dx="1467" dy="775" grid="1" gridSize="10" guides="1" tooltips="1" connect="1" arrows="1" fold="1" page="1" pageScale="1" pageWidth="827" pageHeight="1169" math="0" shadow="0">
      <root>
        <mxCell id="0" />
        <mxCell id="1" parent="0" />
        <mxCell id="ZfktJx4dn-ZNfnQeJaEY-13" value="" style="edgeStyle=orthogonalEdgeStyle;rounded=0;orthogonalLoop=1;jettySize=auto;html=1;" parent="1" source="ZfktJx4dn-ZNfnQeJaEY-1" target="ZfktJx4dn-ZNfnQeJaEY-2" edge="1">
          <mxGeometry relative="1" as="geometry" />
        </mxCell>
        <mxCell id="ZfktJx4dn-ZNfnQeJaEY-1" value="&lt;font face=&quot;Times New Roman&quot; style=&quot;font-size: 14px;&quot;&gt;Mulai&lt;/font&gt;" style="ellipse;whiteSpace=wrap;html=1;" parent="1" vertex="1">
          <mxGeometry x="1111" y="10" width="100" height="60" as="geometry" />
        </mxCell>
        <mxCell id="ZfktJx4dn-ZNfnQeJaEY-14" value="" style="edgeStyle=orthogonalEdgeStyle;rounded=0;orthogonalLoop=1;jettySize=auto;html=1;" parent="1" source="ZfktJx4dn-ZNfnQeJaEY-2" target="ZfktJx4dn-ZNfnQeJaEY-3" edge="1">
          <mxGeometry relative="1" as="geometry" />
        </mxCell>
        <mxCell id="ZfktJx4dn-ZNfnQeJaEY-2" value="&lt;font style=&quot;font-size: 14px;&quot;&gt;Identifikasi permasalahan&lt;/font&gt;" style="rounded=0;whiteSpace=wrap;html=1;fontFamily=Times New Roman;" parent="1" vertex="1">
          <mxGeometry x="1081" y="100" width="160" height="50" as="geometry" />
        </mxCell>
        <mxCell id="ZfktJx4dn-ZNfnQeJaEY-15" value="" style="edgeStyle=orthogonalEdgeStyle;rounded=0;orthogonalLoop=1;jettySize=auto;html=1;" parent="1" source="ZfktJx4dn-ZNfnQeJaEY-3" target="ZfktJx4dn-ZNfnQeJaEY-4" edge="1">
          <mxGeometry relative="1" as="geometry" />
        </mxCell>
        <mxCell id="ZfktJx4dn-ZNfnQeJaEY-3" value="&lt;font style=&quot;font-size: 14px;&quot;&gt;Studi Literatur&lt;/font&gt;" style="rounded=0;whiteSpace=wrap;html=1;fontFamily=Times New Roman;" parent="1" vertex="1">
          <mxGeometry x="1081" y="180" width="160" height="50" as="geometry" />
        </mxCell>
        <mxCell id="gS8OZD_sjrsuSa9gaHxI-2" style="edgeStyle=orthogonalEdgeStyle;rounded=0;orthogonalLoop=1;jettySize=auto;html=1;exitX=0.5;exitY=1;exitDx=0;exitDy=0;entryX=0.5;entryY=0;entryDx=0;entryDy=0;" edge="1" parent="1" source="ZfktJx4dn-ZNfnQeJaEY-4" target="gS8OZD_sjrsuSa9gaHxI-1">
          <mxGeometry relative="1" as="geometry" />
        </mxCell>
        <mxCell id="ZfktJx4dn-ZNfnQeJaEY-4" value="&lt;font style=&quot;font-size: 14px;&quot;&gt;Pengumpulan Data&lt;/font&gt;" style="rounded=0;whiteSpace=wrap;html=1;fontFamily=Times New Roman;" parent="1" vertex="1">
          <mxGeometry x="1081" y="260" width="160" height="50" as="geometry" />
        </mxCell>
        <mxCell id="ZfktJx4dn-ZNfnQeJaEY-30" style="edgeStyle=orthogonalEdgeStyle;rounded=0;orthogonalLoop=1;jettySize=auto;html=1;exitX=0.5;exitY=1;exitDx=0;exitDy=0;" parent="1" source="ZfktJx4dn-ZNfnQeJaEY-5" target="ZfktJx4dn-ZNfnQeJaEY-25" edge="1">
          <mxGeometry relative="1" as="geometry" />
        </mxCell>
        <mxCell id="ZfktJx4dn-ZNfnQeJaEY-31" style="edgeStyle=orthogonalEdgeStyle;rounded=0;orthogonalLoop=1;jettySize=auto;html=1;exitX=0.5;exitY=1;exitDx=0;exitDy=0;entryX=0.5;entryY=0;entryDx=0;entryDy=0;" parent="1" source="ZfktJx4dn-ZNfnQeJaEY-5" target="ZfktJx4dn-ZNfnQeJaEY-24" edge="1">
          <mxGeometry relative="1" as="geometry" />
        </mxCell>
        <mxCell id="ZfktJx4dn-ZNfnQeJaEY-32" style="edgeStyle=orthogonalEdgeStyle;rounded=0;orthogonalLoop=1;jettySize=auto;html=1;exitX=0.5;exitY=1;exitDx=0;exitDy=0;" parent="1" source="ZfktJx4dn-ZNfnQeJaEY-5" target="ZfktJx4dn-ZNfnQeJaEY-19" edge="1">
          <mxGeometry relative="1" as="geometry" />
        </mxCell>
        <mxCell id="ZfktJx4dn-ZNfnQeJaEY-33" style="edgeStyle=orthogonalEdgeStyle;rounded=0;orthogonalLoop=1;jettySize=auto;html=1;exitX=0.5;exitY=1;exitDx=0;exitDy=0;entryX=0.5;entryY=0;entryDx=0;entryDy=0;" parent="1" source="ZfktJx4dn-ZNfnQeJaEY-5" target="ZfktJx4dn-ZNfnQeJaEY-29" edge="1">
          <mxGeometry relative="1" as="geometry" />
        </mxCell>
        <mxCell id="ZfktJx4dn-ZNfnQeJaEY-5" value="&lt;font style=&quot;font-size: 14px;&quot;&gt;Pengolahan Data&lt;/font&gt;" style="rounded=0;whiteSpace=wrap;html=1;fontFamily=Times New Roman;" parent="1" vertex="1">
          <mxGeometry x="354" y="350" width="160" height="50" as="geometry" />
        </mxCell>
        <mxCell id="ZfktJx4dn-ZNfnQeJaEY-79" style="edgeStyle=orthogonalEdgeStyle;rounded=0;orthogonalLoop=1;jettySize=auto;html=1;exitX=0.5;exitY=1;exitDx=0;exitDy=0;entryX=0.5;entryY=0;entryDx=0;entryDy=0;" parent="1" source="ZfktJx4dn-ZNfnQeJaEY-6" target="ZfktJx4dn-ZNfnQeJaEY-26" edge="1">
          <mxGeometry relative="1" as="geometry" />
        </mxCell>
        <mxCell id="ZfktJx4dn-ZNfnQeJaEY-6" value="&lt;font style=&quot;font-size: 14px;&quot;&gt;Pembuatan Webmap&lt;/font&gt;" style="rounded=0;whiteSpace=wrap;html=1;fontFamily=Times New Roman;" parent="1" vertex="1">
          <mxGeometry x="375.5" y="1050" width="160" height="50" as="geometry" />
        </mxCell>
        <mxCell id="ZfktJx4dn-ZNfnQeJaEY-118" style="edgeStyle=orthogonalEdgeStyle;rounded=0;orthogonalLoop=1;jettySize=auto;html=1;exitX=0.5;exitY=1;exitDx=0;exitDy=0;entryX=0.505;entryY=0.073;entryDx=0;entryDy=0;entryPerimeter=0;" parent="1" source="ZfktJx4dn-ZNfnQeJaEY-12" target="ZfktJx4dn-ZNfnQeJaEY-117" edge="1">
          <mxGeometry relative="1" as="geometry" />
        </mxCell>
        <mxCell id="ZfktJx4dn-ZNfnQeJaEY-12" value="&lt;font style=&quot;font-size: 14px;&quot;&gt;Publikasi Data ke Server format &lt;i&gt;Web Map Service&lt;/i&gt; (WMS)&lt;/font&gt;" style="rounded=0;whiteSpace=wrap;html=1;fontFamily=Times New Roman;" parent="1" vertex="1">
          <mxGeometry x="373.5" y="780" width="160" height="50" as="geometry" />
        </mxCell>
        <mxCell id="ZfktJx4dn-ZNfnQeJaEY-78" style="edgeStyle=orthogonalEdgeStyle;rounded=0;orthogonalLoop=1;jettySize=auto;html=1;exitX=0.5;exitY=1;exitDx=0;exitDy=0;exitPerimeter=0;entryX=0.5;entryY=0;entryDx=0;entryDy=0;" parent="1" source="ZfktJx4dn-ZNfnQeJaEY-17" target="ZfktJx4dn-ZNfnQeJaEY-6" edge="1">
          <mxGeometry relative="1" as="geometry" />
        </mxCell>
        <mxCell id="ZfktJx4dn-ZNfnQeJaEY-17" value="&lt;font face=&quot;Times New Roman&quot; style=&quot;font-size: 14px;&quot;&gt;ArcGIS Server&lt;/font&gt;" style="shape=cylinder3;whiteSpace=wrap;html=1;boundedLbl=1;backgroundOutline=1;size=15;" parent="1" vertex="1">
          <mxGeometry x="422" y="930" width="67" height="89.33" as="geometry" />
        </mxCell>
        <mxCell id="ZfktJx4dn-ZNfnQeJaEY-44" value="" style="edgeStyle=orthogonalEdgeStyle;rounded=0;orthogonalLoop=1;jettySize=auto;html=1;" parent="1" source="ZfktJx4dn-ZNfnQeJaEY-19" target="ZfktJx4dn-ZNfnQeJaEY-39" edge="1">
          <mxGeometry relative="1" as="geometry" />
        </mxCell>
        <mxCell id="ZfktJx4dn-ZNfnQeJaEY-19" value="&lt;font face=&quot;Times New Roman&quot; style=&quot;font-size: 14px;&quot;&gt;Data Trase Jalan &lt;br&gt;Tol Trans &lt;br&gt;Sumatera&lt;/font&gt;" style="shape=parallelogram;perimeter=parallelogramPerimeter;whiteSpace=wrap;html=1;fixedSize=1;" parent="1" vertex="1">
          <mxGeometry x="50" y="450" width="130" height="60" as="geometry" />
        </mxCell>
        <mxCell id="ZfktJx4dn-ZNfnQeJaEY-58" style="edgeStyle=orthogonalEdgeStyle;rounded=0;orthogonalLoop=1;jettySize=auto;html=1;exitX=1;exitY=0.5;exitDx=0;exitDy=0;entryX=0;entryY=0.5;entryDx=0;entryDy=0;" parent="1" source="ZfktJx4dn-ZNfnQeJaEY-20" target="ZfktJx4dn-ZNfnQeJaEY-12" edge="1">
          <mxGeometry relative="1" as="geometry">
            <Array as="points">
              <mxPoint x="280" y="640" />
              <mxPoint x="280" y="805" />
            </Array>
          </mxGeometry>
        </mxCell>
        <mxCell id="ZfktJx4dn-ZNfnQeJaEY-20" value="&lt;font face=&quot;Times New Roman&quot;&gt;&lt;span style=&quot;font-size: 14px;&quot;&gt;Trase JTTS Tahap I&lt;/span&gt;&lt;/font&gt;" style="shape=parallelogram;perimeter=parallelogramPerimeter;whiteSpace=wrap;html=1;fixedSize=1;" parent="1" vertex="1">
          <mxGeometry x="50" y="620" width="100" height="40" as="geometry" />
        </mxCell>
        <mxCell id="ZfktJx4dn-ZNfnQeJaEY-60" style="edgeStyle=orthogonalEdgeStyle;rounded=0;orthogonalLoop=1;jettySize=auto;html=1;exitX=1;exitY=0.5;exitDx=0;exitDy=0;entryX=0;entryY=0.5;entryDx=0;entryDy=0;" parent="1" source="ZfktJx4dn-ZNfnQeJaEY-21" target="ZfktJx4dn-ZNfnQeJaEY-12" edge="1">
          <mxGeometry relative="1" as="geometry">
            <Array as="points">
              <mxPoint x="280" y="705" />
              <mxPoint x="280" y="805" />
            </Array>
          </mxGeometry>
        </mxCell>
        <mxCell id="ZfktJx4dn-ZNfnQeJaEY-21" value="&lt;font face=&quot;Times New Roman&quot;&gt;&lt;span style=&quot;font-size: 14px;&quot;&gt;Trase JTTS Tahap II&lt;/span&gt;&lt;/font&gt;" style="shape=parallelogram;perimeter=parallelogramPerimeter;whiteSpace=wrap;html=1;fixedSize=1;" parent="1" vertex="1">
          <mxGeometry x="44" y="687" width="100" height="36" as="geometry" />
        </mxCell>
        <mxCell id="ZfktJx4dn-ZNfnQeJaEY-61" style="edgeStyle=orthogonalEdgeStyle;rounded=0;orthogonalLoop=1;jettySize=auto;html=1;exitX=1;exitY=0.5;exitDx=0;exitDy=0;entryX=0;entryY=0.5;entryDx=0;entryDy=0;" parent="1" source="ZfktJx4dn-ZNfnQeJaEY-22" target="ZfktJx4dn-ZNfnQeJaEY-12" edge="1">
          <mxGeometry relative="1" as="geometry">
            <Array as="points">
              <mxPoint x="280" y="770" />
              <mxPoint x="280" y="805" />
            </Array>
          </mxGeometry>
        </mxCell>
        <mxCell id="ZfktJx4dn-ZNfnQeJaEY-22" value="&lt;font face=&quot;Times New Roman&quot;&gt;&lt;span style=&quot;font-size: 14px;&quot;&gt;Trase JTTS Tahap III&lt;/span&gt;&lt;/font&gt;" style="shape=parallelogram;perimeter=parallelogramPerimeter;whiteSpace=wrap;html=1;fixedSize=1;" parent="1" vertex="1">
          <mxGeometry x="44" y="750" width="100" height="40" as="geometry" />
        </mxCell>
        <mxCell id="ZfktJx4dn-ZNfnQeJaEY-62" style="edgeStyle=orthogonalEdgeStyle;rounded=0;orthogonalLoop=1;jettySize=auto;html=1;exitX=1;exitY=0.5;exitDx=0;exitDy=0;entryX=0;entryY=0.5;entryDx=0;entryDy=0;" parent="1" source="ZfktJx4dn-ZNfnQeJaEY-23" target="ZfktJx4dn-ZNfnQeJaEY-12" edge="1">
          <mxGeometry relative="1" as="geometry">
            <Array as="points">
              <mxPoint x="280" y="830" />
              <mxPoint x="280" y="805" />
            </Array>
          </mxGeometry>
        </mxCell>
        <mxCell id="ZfktJx4dn-ZNfnQeJaEY-23" value="&lt;font face=&quot;Times New Roman&quot;&gt;&lt;span style=&quot;font-size: 14px;&quot;&gt;Trase JTTS Tahap IV&lt;/span&gt;&lt;/font&gt;" style="shape=parallelogram;perimeter=parallelogramPerimeter;whiteSpace=wrap;html=1;fixedSize=1;" parent="1" vertex="1">
          <mxGeometry x="44" y="810" width="100" height="40" as="geometry" />
        </mxCell>
        <mxCell id="ZfktJx4dn-ZNfnQeJaEY-59" style="edgeStyle=orthogonalEdgeStyle;rounded=0;orthogonalLoop=1;jettySize=auto;html=1;exitX=0.5;exitY=1;exitDx=0;exitDy=0;entryX=0;entryY=0.5;entryDx=0;entryDy=0;" parent="1" source="ZfktJx4dn-ZNfnQeJaEY-24" target="ZfktJx4dn-ZNfnQeJaEY-12" edge="1">
          <mxGeometry relative="1" as="geometry">
            <Array as="points">
              <mxPoint x="280" y="510" />
              <mxPoint x="280" y="805" />
            </Array>
          </mxGeometry>
        </mxCell>
        <mxCell id="ZfktJx4dn-ZNfnQeJaEY-24" value="&lt;font face=&quot;Times New Roman&quot; style=&quot;font-size: 14px;&quot;&gt;Data &lt;i&gt;Interchange&lt;/i&gt; Trans Sumatera&lt;/font&gt;" style="shape=parallelogram;perimeter=parallelogramPerimeter;whiteSpace=wrap;html=1;fixedSize=1;" parent="1" vertex="1">
          <mxGeometry x="254" y="450" width="130" height="60" as="geometry" />
        </mxCell>
        <mxCell id="ZfktJx4dn-ZNfnQeJaEY-50" value="" style="edgeStyle=orthogonalEdgeStyle;rounded=0;orthogonalLoop=1;jettySize=auto;html=1;" parent="1" source="ZfktJx4dn-ZNfnQeJaEY-25" target="ZfktJx4dn-ZNfnQeJaEY-40" edge="1">
          <mxGeometry relative="1" as="geometry" />
        </mxCell>
        <mxCell id="ZfktJx4dn-ZNfnQeJaEY-25" value="&lt;font face=&quot;Times New Roman&quot; style=&quot;font-size: 14px;&quot;&gt;Batas Administrasi Pulau Sumatera&lt;/font&gt;" style="shape=parallelogram;perimeter=parallelogramPerimeter;whiteSpace=wrap;html=1;fixedSize=1;" parent="1" vertex="1">
          <mxGeometry x="470" y="450" width="130" height="60" as="geometry" />
        </mxCell>
        <mxCell id="ZfktJx4dn-ZNfnQeJaEY-80" value="" style="edgeStyle=orthogonalEdgeStyle;rounded=0;orthogonalLoop=1;jettySize=auto;html=1;" parent="1" source="ZfktJx4dn-ZNfnQeJaEY-26" target="ZfktJx4dn-ZNfnQeJaEY-27" edge="1">
          <mxGeometry relative="1" as="geometry" />
        </mxCell>
        <mxCell id="ZfktJx4dn-ZNfnQeJaEY-26" value="&lt;span style=&quot;font-size: 14px;&quot;&gt;Visualisasi Data Spasial&lt;/span&gt;" style="rounded=0;whiteSpace=wrap;html=1;fontFamily=Times New Roman;" parent="1" vertex="1">
          <mxGeometry x="375.5" y="1130" width="160" height="50" as="geometry" />
        </mxCell>
        <mxCell id="ZfktJx4dn-ZNfnQeJaEY-90" style="edgeStyle=orthogonalEdgeStyle;rounded=0;orthogonalLoop=1;jettySize=auto;html=1;exitX=0.5;exitY=1;exitDx=0;exitDy=0;entryX=0.5;entryY=0;entryDx=0;entryDy=0;" parent="1" source="ZfktJx4dn-ZNfnQeJaEY-27" target="ZfktJx4dn-ZNfnQeJaEY-81" edge="1">
          <mxGeometry relative="1" as="geometry" />
        </mxCell>
        <mxCell id="ZfktJx4dn-ZNfnQeJaEY-27" value="&lt;font face=&quot;Times New Roman&quot;&gt;&lt;span style=&quot;font-size: 14px;&quot;&gt;Webmap JTTS&amp;nbsp;&lt;/span&gt;&lt;/font&gt;" style="shape=parallelogram;perimeter=parallelogramPerimeter;whiteSpace=wrap;html=1;fixedSize=1;" parent="1" vertex="1">
          <mxGeometry x="387.25" y="1210" width="136.5" height="60" as="geometry" />
        </mxCell>
        <mxCell id="ZfktJx4dn-ZNfnQeJaEY-73" style="edgeStyle=orthogonalEdgeStyle;rounded=0;orthogonalLoop=1;jettySize=auto;html=1;exitX=1;exitY=0.5;exitDx=0;exitDy=0;entryX=1;entryY=0.5;entryDx=0;entryDy=0;" parent="1" source="ZfktJx4dn-ZNfnQeJaEY-28" target="ZfktJx4dn-ZNfnQeJaEY-37" edge="1">
          <mxGeometry relative="1" as="geometry">
            <Array as="points">
              <mxPoint x="833" y="565" />
              <mxPoint x="833" y="640" />
            </Array>
          </mxGeometry>
        </mxCell>
        <mxCell id="ZfktJx4dn-ZNfnQeJaEY-74" style="edgeStyle=orthogonalEdgeStyle;rounded=0;orthogonalLoop=1;jettySize=auto;html=1;exitX=1;exitY=0.5;exitDx=0;exitDy=0;entryX=1;entryY=0.5;entryDx=0;entryDy=0;" parent="1" source="ZfktJx4dn-ZNfnQeJaEY-28" target="ZfktJx4dn-ZNfnQeJaEY-38" edge="1">
          <mxGeometry relative="1" as="geometry">
            <Array as="points">
              <mxPoint x="833" y="565" />
              <mxPoint x="833" y="705" />
            </Array>
          </mxGeometry>
        </mxCell>
        <mxCell id="ZfktJx4dn-ZNfnQeJaEY-75" style="edgeStyle=orthogonalEdgeStyle;rounded=0;orthogonalLoop=1;jettySize=auto;html=1;exitX=1;exitY=0.5;exitDx=0;exitDy=0;entryX=1;entryY=0.75;entryDx=0;entryDy=0;" parent="1" source="ZfktJx4dn-ZNfnQeJaEY-28" target="ZfktJx4dn-ZNfnQeJaEY-41" edge="1">
          <mxGeometry relative="1" as="geometry">
            <Array as="points">
              <mxPoint x="833" y="565" />
              <mxPoint x="833" y="777" />
            </Array>
          </mxGeometry>
        </mxCell>
        <mxCell id="ZfktJx4dn-ZNfnQeJaEY-28" value="&lt;font style=&quot;font-size: 14px;&quot;&gt;Pengelompokkan dan simbolisasi data&lt;/font&gt;" style="rounded=0;whiteSpace=wrap;html=1;fontFamily=Times New Roman;" parent="1" vertex="1">
          <mxGeometry x="677" y="540" width="136" height="50" as="geometry" />
        </mxCell>
        <mxCell id="ZfktJx4dn-ZNfnQeJaEY-57" style="edgeStyle=orthogonalEdgeStyle;rounded=0;orthogonalLoop=1;jettySize=auto;html=1;exitX=0.5;exitY=1;exitDx=0;exitDy=0;entryX=0.5;entryY=0;entryDx=0;entryDy=0;" parent="1" source="ZfktJx4dn-ZNfnQeJaEY-29" target="ZfktJx4dn-ZNfnQeJaEY-28" edge="1">
          <mxGeometry relative="1" as="geometry" />
        </mxCell>
        <mxCell id="ZfktJx4dn-ZNfnQeJaEY-29" value="&lt;font face=&quot;Times New Roman&quot; style=&quot;font-size: 14px;&quot;&gt;Data Jalan &lt;br&gt;Binamarga&lt;/font&gt;" style="shape=parallelogram;perimeter=parallelogramPerimeter;whiteSpace=wrap;html=1;fixedSize=1;" parent="1" vertex="1">
          <mxGeometry x="680" y="450" width="130" height="60" as="geometry" />
        </mxCell>
        <mxCell id="ZfktJx4dn-ZNfnQeJaEY-66" style="edgeStyle=orthogonalEdgeStyle;rounded=0;orthogonalLoop=1;jettySize=auto;html=1;exitX=0.5;exitY=1;exitDx=0;exitDy=0;" parent="1" source="ZfktJx4dn-ZNfnQeJaEY-34" target="ZfktJx4dn-ZNfnQeJaEY-12" edge="1">
          <mxGeometry relative="1" as="geometry" />
        </mxCell>
        <mxCell id="ZfktJx4dn-ZNfnQeJaEY-34" value="&lt;font face=&quot;Times New Roman&quot;&gt;&lt;span style=&quot;font-size: 14px;&quot;&gt;Batas &amp;amp; Label Provinsi&lt;/span&gt;&lt;/font&gt;" style="shape=parallelogram;perimeter=parallelogramPerimeter;whiteSpace=wrap;html=1;fixedSize=1;" parent="1" vertex="1">
          <mxGeometry x="285" y="650" width="116" height="50" as="geometry" />
        </mxCell>
        <mxCell id="ZfktJx4dn-ZNfnQeJaEY-67" style="edgeStyle=orthogonalEdgeStyle;rounded=0;orthogonalLoop=1;jettySize=auto;html=1;exitX=0.5;exitY=1;exitDx=0;exitDy=0;entryX=0.5;entryY=0;entryDx=0;entryDy=0;" parent="1" source="ZfktJx4dn-ZNfnQeJaEY-35" target="ZfktJx4dn-ZNfnQeJaEY-12" edge="1">
          <mxGeometry relative="1" as="geometry" />
        </mxCell>
        <mxCell id="ZfktJx4dn-ZNfnQeJaEY-35" value="&lt;font face=&quot;Times New Roman&quot;&gt;&lt;span style=&quot;font-size: 14px;&quot;&gt;Batas &amp;amp; Label Kabupaten/Kota&lt;/span&gt;&lt;/font&gt;" style="shape=parallelogram;perimeter=parallelogramPerimeter;whiteSpace=wrap;html=1;fixedSize=1;" parent="1" vertex="1">
          <mxGeometry x="413.5" y="650" width="120" height="50" as="geometry" />
        </mxCell>
        <mxCell id="ZfktJx4dn-ZNfnQeJaEY-69" style="edgeStyle=orthogonalEdgeStyle;rounded=0;orthogonalLoop=1;jettySize=auto;html=1;exitX=0.5;exitY=1;exitDx=0;exitDy=0;entryX=0.5;entryY=0;entryDx=0;entryDy=0;" parent="1" source="ZfktJx4dn-ZNfnQeJaEY-36" target="ZfktJx4dn-ZNfnQeJaEY-12" edge="1">
          <mxGeometry relative="1" as="geometry" />
        </mxCell>
        <mxCell id="ZfktJx4dn-ZNfnQeJaEY-36" value="&lt;font face=&quot;Times New Roman&quot;&gt;&lt;span style=&quot;font-size: 14px;&quot;&gt;Batas &lt;br&gt;Kecamatan&lt;/span&gt;&lt;/font&gt;" style="shape=parallelogram;perimeter=parallelogramPerimeter;whiteSpace=wrap;html=1;fixedSize=1;" parent="1" vertex="1">
          <mxGeometry x="545" y="650" width="110" height="50" as="geometry" />
        </mxCell>
        <mxCell id="ZfktJx4dn-ZNfnQeJaEY-70" style="edgeStyle=orthogonalEdgeStyle;rounded=0;orthogonalLoop=1;jettySize=auto;html=1;exitX=0;exitY=0.25;exitDx=0;exitDy=0;entryX=1;entryY=0.5;entryDx=0;entryDy=0;" parent="1" source="ZfktJx4dn-ZNfnQeJaEY-37" target="ZfktJx4dn-ZNfnQeJaEY-12" edge="1">
          <mxGeometry relative="1" as="geometry">
            <Array as="points">
              <mxPoint x="660" y="633" />
              <mxPoint x="660" y="805" />
            </Array>
          </mxGeometry>
        </mxCell>
        <mxCell id="ZfktJx4dn-ZNfnQeJaEY-37" value="&lt;font face=&quot;Times New Roman&quot;&gt;&lt;span style=&quot;font-size: 14px;&quot;&gt;Jalan &lt;br&gt;Nasional&lt;/span&gt;&lt;/font&gt;" style="shape=parallelogram;perimeter=parallelogramPerimeter;whiteSpace=wrap;html=1;fixedSize=1;" parent="1" vertex="1">
          <mxGeometry x="695" y="620" width="100" height="40" as="geometry" />
        </mxCell>
        <mxCell id="ZfktJx4dn-ZNfnQeJaEY-71" style="edgeStyle=orthogonalEdgeStyle;rounded=0;orthogonalLoop=1;jettySize=auto;html=1;exitX=0;exitY=0.5;exitDx=0;exitDy=0;entryX=1;entryY=0.5;entryDx=0;entryDy=0;" parent="1" source="ZfktJx4dn-ZNfnQeJaEY-38" target="ZfktJx4dn-ZNfnQeJaEY-12" edge="1">
          <mxGeometry relative="1" as="geometry">
            <Array as="points">
              <mxPoint x="660" y="705" />
              <mxPoint x="660" y="805" />
            </Array>
          </mxGeometry>
        </mxCell>
        <mxCell id="ZfktJx4dn-ZNfnQeJaEY-38" value="&lt;font face=&quot;Times New Roman&quot;&gt;&lt;span style=&quot;font-size: 14px;&quot;&gt;Jalan &lt;br&gt;Provinsi&lt;/span&gt;&lt;/font&gt;" style="shape=parallelogram;perimeter=parallelogramPerimeter;whiteSpace=wrap;html=1;fixedSize=1;" parent="1" vertex="1">
          <mxGeometry x="695" y="685" width="100" height="40" as="geometry" />
        </mxCell>
        <mxCell id="ZfktJx4dn-ZNfnQeJaEY-45" style="edgeStyle=orthogonalEdgeStyle;rounded=0;orthogonalLoop=1;jettySize=auto;html=1;exitX=0;exitY=0.5;exitDx=0;exitDy=0;entryX=0;entryY=0.5;entryDx=0;entryDy=0;" parent="1" source="ZfktJx4dn-ZNfnQeJaEY-39" target="ZfktJx4dn-ZNfnQeJaEY-20" edge="1">
          <mxGeometry relative="1" as="geometry">
            <Array as="points">
              <mxPoint x="12" y="565" />
              <mxPoint x="12" y="640" />
            </Array>
          </mxGeometry>
        </mxCell>
        <mxCell id="ZfktJx4dn-ZNfnQeJaEY-63" style="edgeStyle=orthogonalEdgeStyle;rounded=0;orthogonalLoop=1;jettySize=auto;html=1;exitX=0;exitY=0.5;exitDx=0;exitDy=0;entryX=0;entryY=0.5;entryDx=0;entryDy=0;" parent="1" source="ZfktJx4dn-ZNfnQeJaEY-39" target="ZfktJx4dn-ZNfnQeJaEY-21" edge="1">
          <mxGeometry relative="1" as="geometry">
            <Array as="points">
              <mxPoint x="12" y="565" />
              <mxPoint x="12" y="705" />
            </Array>
          </mxGeometry>
        </mxCell>
        <mxCell id="ZfktJx4dn-ZNfnQeJaEY-64" style="edgeStyle=orthogonalEdgeStyle;rounded=0;orthogonalLoop=1;jettySize=auto;html=1;exitX=0;exitY=0.5;exitDx=0;exitDy=0;entryX=0;entryY=0.5;entryDx=0;entryDy=0;" parent="1" source="ZfktJx4dn-ZNfnQeJaEY-39" target="ZfktJx4dn-ZNfnQeJaEY-22" edge="1">
          <mxGeometry relative="1" as="geometry">
            <Array as="points">
              <mxPoint x="12" y="565" />
              <mxPoint x="12" y="770" />
            </Array>
          </mxGeometry>
        </mxCell>
        <mxCell id="ZfktJx4dn-ZNfnQeJaEY-65" style="edgeStyle=orthogonalEdgeStyle;rounded=0;orthogonalLoop=1;jettySize=auto;html=1;exitX=0;exitY=0.5;exitDx=0;exitDy=0;entryX=0;entryY=0.5;entryDx=0;entryDy=0;" parent="1" source="ZfktJx4dn-ZNfnQeJaEY-39" target="ZfktJx4dn-ZNfnQeJaEY-23" edge="1">
          <mxGeometry relative="1" as="geometry">
            <Array as="points">
              <mxPoint x="12" y="565" />
              <mxPoint x="12" y="830" />
            </Array>
          </mxGeometry>
        </mxCell>
        <mxCell id="ZfktJx4dn-ZNfnQeJaEY-39" value="&lt;font style=&quot;font-size: 14px;&quot;&gt;Pengelompokkan trase sesuai tahapan pembangunan&lt;/font&gt;" style="rounded=0;whiteSpace=wrap;html=1;fontFamily=Times New Roman;" parent="1" vertex="1">
          <mxGeometry x="32" y="540" width="166" height="50" as="geometry" />
        </mxCell>
        <mxCell id="ZfktJx4dn-ZNfnQeJaEY-51" style="edgeStyle=orthogonalEdgeStyle;rounded=0;orthogonalLoop=1;jettySize=auto;html=1;exitX=0.5;exitY=1;exitDx=0;exitDy=0;entryX=0.5;entryY=0;entryDx=0;entryDy=0;" parent="1" source="ZfktJx4dn-ZNfnQeJaEY-40" target="ZfktJx4dn-ZNfnQeJaEY-35" edge="1">
          <mxGeometry relative="1" as="geometry" />
        </mxCell>
        <mxCell id="ZfktJx4dn-ZNfnQeJaEY-52" style="edgeStyle=orthogonalEdgeStyle;rounded=0;orthogonalLoop=1;jettySize=auto;html=1;exitX=0.5;exitY=1;exitDx=0;exitDy=0;entryX=0.5;entryY=0;entryDx=0;entryDy=0;" parent="1" source="ZfktJx4dn-ZNfnQeJaEY-40" target="ZfktJx4dn-ZNfnQeJaEY-34" edge="1">
          <mxGeometry relative="1" as="geometry" />
        </mxCell>
        <mxCell id="ZfktJx4dn-ZNfnQeJaEY-53" style="edgeStyle=orthogonalEdgeStyle;rounded=0;orthogonalLoop=1;jettySize=auto;html=1;exitX=0.5;exitY=1;exitDx=0;exitDy=0;entryX=0.5;entryY=0;entryDx=0;entryDy=0;" parent="1" source="ZfktJx4dn-ZNfnQeJaEY-40" target="ZfktJx4dn-ZNfnQeJaEY-36" edge="1">
          <mxGeometry relative="1" as="geometry" />
        </mxCell>
        <mxCell id="ZfktJx4dn-ZNfnQeJaEY-40" value="&lt;span style=&quot;font-size: 14px;&quot;&gt;Simbolisasi area dan label&lt;/span&gt;" style="rounded=0;whiteSpace=wrap;html=1;fontFamily=Times New Roman;" parent="1" vertex="1">
          <mxGeometry x="452" y="540" width="166" height="50" as="geometry" />
        </mxCell>
        <mxCell id="ZfktJx4dn-ZNfnQeJaEY-72" style="edgeStyle=orthogonalEdgeStyle;rounded=0;orthogonalLoop=1;jettySize=auto;html=1;exitX=0;exitY=0.5;exitDx=0;exitDy=0;entryX=1;entryY=0.5;entryDx=0;entryDy=0;" parent="1" source="ZfktJx4dn-ZNfnQeJaEY-41" target="ZfktJx4dn-ZNfnQeJaEY-12" edge="1">
          <mxGeometry relative="1" as="geometry">
            <Array as="points">
              <mxPoint x="660" y="770" />
              <mxPoint x="660" y="805" />
            </Array>
          </mxGeometry>
        </mxCell>
        <mxCell id="ZfktJx4dn-ZNfnQeJaEY-41" value="&lt;font face=&quot;Times New Roman&quot;&gt;&lt;span style=&quot;font-size: 14px;&quot;&gt;Jalan &lt;br&gt;Kabupaten&lt;/span&gt;&lt;/font&gt;" style="shape=parallelogram;perimeter=parallelogramPerimeter;whiteSpace=wrap;html=1;fixedSize=1;" parent="1" vertex="1">
          <mxGeometry x="690" y="750" width="100" height="40" as="geometry" />
        </mxCell>
        <mxCell id="ZfktJx4dn-ZNfnQeJaEY-91" style="edgeStyle=orthogonalEdgeStyle;rounded=0;orthogonalLoop=1;jettySize=auto;html=1;exitX=0.5;exitY=1;exitDx=0;exitDy=0;entryX=0.5;entryY=0;entryDx=0;entryDy=0;" parent="1" source="ZfktJx4dn-ZNfnQeJaEY-81" target="ZfktJx4dn-ZNfnQeJaEY-82" edge="1">
          <mxGeometry relative="1" as="geometry" />
        </mxCell>
        <mxCell id="ZfktJx4dn-ZNfnQeJaEY-81" value="&lt;font style=&quot;font-size: 14px;&quot;&gt;Pembuatan &lt;i&gt;webGIS&lt;/i&gt; dengan &lt;i&gt;Web AppBuilder&lt;/i&gt;&lt;/font&gt;" style="rounded=0;whiteSpace=wrap;html=1;fontFamily=Times New Roman;" parent="1" vertex="1">
          <mxGeometry x="375.5" y="1300" width="160" height="50" as="geometry" />
        </mxCell>
        <mxCell id="ZfktJx4dn-ZNfnQeJaEY-92" style="edgeStyle=orthogonalEdgeStyle;rounded=0;orthogonalLoop=1;jettySize=auto;html=1;exitX=0.5;exitY=1;exitDx=0;exitDy=0;entryX=0.5;entryY=0;entryDx=0;entryDy=0;" parent="1" source="ZfktJx4dn-ZNfnQeJaEY-82" target="ZfktJx4dn-ZNfnQeJaEY-85" edge="1">
          <mxGeometry relative="1" as="geometry" />
        </mxCell>
        <mxCell id="ZfktJx4dn-ZNfnQeJaEY-93" style="edgeStyle=orthogonalEdgeStyle;rounded=0;orthogonalLoop=1;jettySize=auto;html=1;exitX=0.5;exitY=1;exitDx=0;exitDy=0;" parent="1" source="ZfktJx4dn-ZNfnQeJaEY-82" target="ZfktJx4dn-ZNfnQeJaEY-83" edge="1">
          <mxGeometry relative="1" as="geometry" />
        </mxCell>
        <mxCell id="ZfktJx4dn-ZNfnQeJaEY-94" style="edgeStyle=orthogonalEdgeStyle;rounded=0;orthogonalLoop=1;jettySize=auto;html=1;exitX=0.5;exitY=1;exitDx=0;exitDy=0;" parent="1" source="ZfktJx4dn-ZNfnQeJaEY-82" target="ZfktJx4dn-ZNfnQeJaEY-84" edge="1">
          <mxGeometry relative="1" as="geometry" />
        </mxCell>
        <mxCell id="ZfktJx4dn-ZNfnQeJaEY-95" style="edgeStyle=orthogonalEdgeStyle;rounded=0;orthogonalLoop=1;jettySize=auto;html=1;exitX=0.5;exitY=1;exitDx=0;exitDy=0;" parent="1" source="ZfktJx4dn-ZNfnQeJaEY-82" target="ZfktJx4dn-ZNfnQeJaEY-86" edge="1">
          <mxGeometry relative="1" as="geometry" />
        </mxCell>
        <mxCell id="ZfktJx4dn-ZNfnQeJaEY-96" style="edgeStyle=orthogonalEdgeStyle;rounded=0;orthogonalLoop=1;jettySize=auto;html=1;exitX=0.5;exitY=1;exitDx=0;exitDy=0;" parent="1" source="ZfktJx4dn-ZNfnQeJaEY-82" target="ZfktJx4dn-ZNfnQeJaEY-87" edge="1">
          <mxGeometry relative="1" as="geometry" />
        </mxCell>
        <mxCell id="ZfktJx4dn-ZNfnQeJaEY-82" value="&lt;font style=&quot;font-size: 14px;&quot;&gt;Pembuatan &lt;i&gt;widget&lt;/i&gt;&lt;/font&gt;" style="rounded=0;whiteSpace=wrap;html=1;fontFamily=Times New Roman;" parent="1" vertex="1">
          <mxGeometry x="375.5" y="1380" width="160" height="50" as="geometry" />
        </mxCell>
        <mxCell id="ZfktJx4dn-ZNfnQeJaEY-101" style="edgeStyle=orthogonalEdgeStyle;rounded=0;orthogonalLoop=1;jettySize=auto;html=1;exitX=0.5;exitY=1;exitDx=0;exitDy=0;" parent="1" source="ZfktJx4dn-ZNfnQeJaEY-83" target="ZfktJx4dn-ZNfnQeJaEY-100" edge="1">
          <mxGeometry relative="1" as="geometry" />
        </mxCell>
        <mxCell id="ZfktJx4dn-ZNfnQeJaEY-83" value="&lt;font style=&quot;font-size: 14px;&quot;&gt;Analisis Spasial &lt;i&gt;Buffer&lt;/i&gt; &amp;amp; &lt;i&gt;Overlay&lt;/i&gt;&lt;/font&gt;" style="rounded=0;whiteSpace=wrap;html=1;fontFamily=Times New Roman;" parent="1" vertex="1">
          <mxGeometry x="57" y="1470" width="120" height="50" as="geometry" />
        </mxCell>
        <mxCell id="ZfktJx4dn-ZNfnQeJaEY-102" style="edgeStyle=orthogonalEdgeStyle;rounded=0;orthogonalLoop=1;jettySize=auto;html=1;exitX=0.5;exitY=1;exitDx=0;exitDy=0;" parent="1" source="ZfktJx4dn-ZNfnQeJaEY-84" target="ZfktJx4dn-ZNfnQeJaEY-100" edge="1">
          <mxGeometry relative="1" as="geometry" />
        </mxCell>
        <mxCell id="ZfktJx4dn-ZNfnQeJaEY-84" value="&lt;span style=&quot;font-size: 14px;&quot;&gt;&lt;i&gt;enhanced Drawing&lt;/i&gt; (eDraw)&lt;/span&gt;" style="rounded=0;whiteSpace=wrap;html=1;fontFamily=Times New Roman;" parent="1" vertex="1">
          <mxGeometry x="232" y="1470" width="120" height="50" as="geometry" />
        </mxCell>
        <mxCell id="ZfktJx4dn-ZNfnQeJaEY-103" style="edgeStyle=orthogonalEdgeStyle;rounded=0;orthogonalLoop=1;jettySize=auto;html=1;exitX=0.5;exitY=1;exitDx=0;exitDy=0;entryX=0.5;entryY=0;entryDx=0;entryDy=0;" parent="1" source="ZfktJx4dn-ZNfnQeJaEY-85" target="ZfktJx4dn-ZNfnQeJaEY-100" edge="1">
          <mxGeometry relative="1" as="geometry" />
        </mxCell>
        <mxCell id="ZfktJx4dn-ZNfnQeJaEY-85" value="&lt;span style=&quot;font-size: 14px;&quot;&gt;&lt;i&gt;Add Data&lt;/i&gt;&lt;/span&gt;" style="rounded=0;whiteSpace=wrap;html=1;fontFamily=Times New Roman;" parent="1" vertex="1">
          <mxGeometry x="395.5" y="1470" width="120" height="50" as="geometry" />
        </mxCell>
        <mxCell id="ZfktJx4dn-ZNfnQeJaEY-104" style="edgeStyle=orthogonalEdgeStyle;rounded=0;orthogonalLoop=1;jettySize=auto;html=1;exitX=0.5;exitY=1;exitDx=0;exitDy=0;entryX=0.5;entryY=0;entryDx=0;entryDy=0;" parent="1" source="ZfktJx4dn-ZNfnQeJaEY-86" target="ZfktJx4dn-ZNfnQeJaEY-100" edge="1">
          <mxGeometry relative="1" as="geometry" />
        </mxCell>
        <mxCell id="ZfktJx4dn-ZNfnQeJaEY-86" value="&lt;span style=&quot;font-size: 14px;&quot;&gt;Download Trase&lt;/span&gt;" style="rounded=0;whiteSpace=wrap;html=1;fontFamily=Times New Roman;" parent="1" vertex="1">
          <mxGeometry x="547" y="1470" width="120" height="50" as="geometry" />
        </mxCell>
        <mxCell id="ZfktJx4dn-ZNfnQeJaEY-105" style="edgeStyle=orthogonalEdgeStyle;rounded=0;orthogonalLoop=1;jettySize=auto;html=1;exitX=0.5;exitY=1;exitDx=0;exitDy=0;entryX=0.5;entryY=0;entryDx=0;entryDy=0;" parent="1" source="ZfktJx4dn-ZNfnQeJaEY-87" target="ZfktJx4dn-ZNfnQeJaEY-100" edge="1">
          <mxGeometry relative="1" as="geometry" />
        </mxCell>
        <mxCell id="ZfktJx4dn-ZNfnQeJaEY-87" value="&lt;span style=&quot;font-size: 14px;&quot;&gt;&lt;i&gt;Custom Print&lt;/i&gt;&lt;/span&gt;" style="rounded=0;whiteSpace=wrap;html=1;fontFamily=Times New Roman;" parent="1" vertex="1">
          <mxGeometry x="695" y="1470" width="120" height="50" as="geometry" />
        </mxCell>
        <mxCell id="ZfktJx4dn-ZNfnQeJaEY-106" style="edgeStyle=orthogonalEdgeStyle;rounded=0;orthogonalLoop=1;jettySize=auto;html=1;exitX=0;exitY=0.5;exitDx=0;exitDy=0;entryX=0;entryY=0.5;entryDx=0;entryDy=0;" parent="1" source="ZfktJx4dn-ZNfnQeJaEY-97" target="ZfktJx4dn-ZNfnQeJaEY-82" edge="1">
          <mxGeometry relative="1" as="geometry">
            <Array as="points">
              <mxPoint x="42" y="1695" />
              <mxPoint x="42" y="1405" />
            </Array>
          </mxGeometry>
        </mxCell>
        <mxCell id="ZfktJx4dn-ZNfnQeJaEY-108" value="" style="edgeStyle=orthogonalEdgeStyle;rounded=0;orthogonalLoop=1;jettySize=auto;html=1;" parent="1" source="ZfktJx4dn-ZNfnQeJaEY-97" target="ZfktJx4dn-ZNfnQeJaEY-98" edge="1">
          <mxGeometry relative="1" as="geometry" />
        </mxCell>
        <mxCell id="ZfktJx4dn-ZNfnQeJaEY-97" value="&lt;font face=&quot;Times New Roman&quot; style=&quot;font-size: 14px;&quot;&gt;Uji Fungsi Widget&lt;/font&gt;" style="rhombus;whiteSpace=wrap;html=1;" parent="1" vertex="1">
          <mxGeometry x="410.5" y="1650" width="90" height="90" as="geometry" />
        </mxCell>
        <mxCell id="ZfktJx4dn-ZNfnQeJaEY-115" value="" style="edgeStyle=orthogonalEdgeStyle;rounded=0;orthogonalLoop=1;jettySize=auto;html=1;" parent="1" source="ZfktJx4dn-ZNfnQeJaEY-98" target="ZfktJx4dn-ZNfnQeJaEY-114" edge="1">
          <mxGeometry relative="1" as="geometry" />
        </mxCell>
        <mxCell id="ZfktJx4dn-ZNfnQeJaEY-98" value="&lt;font style=&quot;font-size: 14px;&quot;&gt;&lt;i&gt;Deployment webGIS&lt;/i&gt;&lt;/font&gt;" style="rounded=0;whiteSpace=wrap;html=1;fontFamily=Times New Roman;" parent="1" vertex="1">
          <mxGeometry x="375.5" y="1790" width="160" height="50" as="geometry" />
        </mxCell>
        <mxCell id="ZfktJx4dn-ZNfnQeJaEY-109" style="edgeStyle=orthogonalEdgeStyle;rounded=0;orthogonalLoop=1;jettySize=auto;html=1;exitX=0.5;exitY=1;exitDx=0;exitDy=0;entryX=0.5;entryY=0;entryDx=0;entryDy=0;" parent="1" source="ZfktJx4dn-ZNfnQeJaEY-100" target="ZfktJx4dn-ZNfnQeJaEY-97" edge="1">
          <mxGeometry relative="1" as="geometry" />
        </mxCell>
        <mxCell id="ZfktJx4dn-ZNfnQeJaEY-100" value="&lt;font face=&quot;Times New Roman&quot;&gt;&lt;span style=&quot;font-size: 14px;&quot;&gt;webGIS Jalan &lt;br&gt;Tol Trans Sumatera&lt;/span&gt;&lt;/font&gt;" style="shape=parallelogram;perimeter=parallelogramPerimeter;whiteSpace=wrap;html=1;fixedSize=1;" parent="1" vertex="1">
          <mxGeometry x="387.25" y="1570" width="136.5" height="60" as="geometry" />
        </mxCell>
        <mxCell id="ZfktJx4dn-ZNfnQeJaEY-107" style="edgeStyle=orthogonalEdgeStyle;rounded=0;orthogonalLoop=1;jettySize=auto;html=1;exitX=0.5;exitY=1;exitDx=0;exitDy=0;" parent="1" source="ZfktJx4dn-ZNfnQeJaEY-98" target="ZfktJx4dn-ZNfnQeJaEY-98" edge="1">
          <mxGeometry relative="1" as="geometry" />
        </mxCell>
        <mxCell id="ZfktJx4dn-ZNfnQeJaEY-110" value="&lt;font face=&quot;Times New Roman&quot; style=&quot;font-size: 14px;&quot;&gt;Selesai&lt;/font&gt;" style="ellipse;whiteSpace=wrap;html=1;" parent="1" vertex="1">
          <mxGeometry x="405.5" y="1940" width="100" height="60" as="geometry" />
        </mxCell>
        <mxCell id="ZfktJx4dn-ZNfnQeJaEY-112" value="Ya" style="text;html=1;strokeColor=none;fillColor=default;align=center;verticalAlign=middle;whiteSpace=wrap;rounded=0;" parent="1" vertex="1">
          <mxGeometry x="425" y="1740" width="60" height="30" as="geometry" />
        </mxCell>
        <mxCell id="ZfktJx4dn-ZNfnQeJaEY-113" value="Tidak" style="text;html=1;strokeColor=none;fillColor=default;align=center;verticalAlign=middle;whiteSpace=wrap;rounded=0;" parent="1" vertex="1">
          <mxGeometry x="12" y="1620" width="60" height="30" as="geometry" />
        </mxCell>
        <mxCell id="ZfktJx4dn-ZNfnQeJaEY-116" value="" style="edgeStyle=orthogonalEdgeStyle;rounded=0;orthogonalLoop=1;jettySize=auto;html=1;" parent="1" source="ZfktJx4dn-ZNfnQeJaEY-114" target="ZfktJx4dn-ZNfnQeJaEY-110" edge="1">
          <mxGeometry relative="1" as="geometry" />
        </mxCell>
        <mxCell id="ZfktJx4dn-ZNfnQeJaEY-114" value="&lt;font style=&quot;font-size: 14px;&quot;&gt;Penyusunan laporan&lt;/font&gt;" style="rounded=0;whiteSpace=wrap;html=1;fontFamily=Times New Roman;" parent="1" vertex="1">
          <mxGeometry x="375" y="1870" width="160" height="50" as="geometry" />
        </mxCell>
        <mxCell id="ZfktJx4dn-ZNfnQeJaEY-119" style="edgeStyle=orthogonalEdgeStyle;rounded=0;orthogonalLoop=1;jettySize=auto;html=1;exitX=0.55;exitY=0.95;exitDx=0;exitDy=0;exitPerimeter=0;entryX=0.5;entryY=0;entryDx=0;entryDy=0;entryPerimeter=0;" parent="1" source="ZfktJx4dn-ZNfnQeJaEY-117" target="ZfktJx4dn-ZNfnQeJaEY-17" edge="1">
          <mxGeometry relative="1" as="geometry" />
        </mxCell>
        <mxCell id="ZfktJx4dn-ZNfnQeJaEY-117" value="&lt;font face=&quot;Times New Roman&quot; style=&quot;font-size: 14px;&quot;&gt;ArcGIS Rest &lt;br&gt;API&lt;/font&gt;" style="ellipse;shape=cloud;whiteSpace=wrap;html=1;" parent="1" vertex="1">
          <mxGeometry x="393.5" y="840" width="120" height="80" as="geometry" />
        </mxCell>
        <mxCell id="gS8OZD_sjrsuSa9gaHxI-1" value="&lt;font face=&quot;Times New Roman&quot; style=&quot;font-size: 14px;&quot;&gt;A&lt;/font&gt;" style="ellipse;whiteSpace=wrap;html=1;aspect=fixed;" vertex="1" parent="1">
          <mxGeometry x="1141" y="340" width="40" height="40" as="geometry" />
        </mxCell>
      </root>
    </mxGraphModel>
  </diagram>
</mxfile>
